<?xml version="1.0" encoding="UTF-8" standalone="no"?>
<!DOCTYPE svg PUBLIC "-//W3C//DTD SVG 1.1//EN" "http://www.w3.org/Graphics/SVG/1.1/DTD/svg11.dtd">
<svg width="100%" height="100%" viewBox="0 0 417 417" version="1.1" xmlns="http://www.w3.org/2000/svg" xmlns:xlink="http://www.w3.org/1999/xlink" xml:space="preserve" xmlns:serif="http://www.serif.com/" style="fill-rule:evenodd;clip-rule:evenodd;stroke-linecap:round;stroke-linejoin:round;stroke-miterlimit:5;">
    <g transform="matrix(1,0,0,0.583131,0,171.333)">
        <ellipse cx="212.5" cy="356.305" rx="197.5" ry="54.695" style="fill:rgb(219,219,219);stroke:rgb(222,222,222);stroke-width:10.18px;"/>
    </g>
    <g id="biopsy-room" transform="matrix(1,0,0,1,2,-22)">
        <g transform="matrix(1.07792,0,0,1.07792,-1.19481,-75.7013)">
            <path d="M41,290.081L41,423.28C41,431.697 47.833,438.53 56.25,438.53L333.75,438.53C342.167,438.53 349,431.697 349,423.28L349,290.081C349,245.331 312.669,209 267.919,209L122.081,209C77.331,209 41,245.331 41,290.081Z" style="fill:white;stroke:rgb(166,166,166);stroke-width:14.69px;stroke-linejoin:bevel;stroke-miterlimit:1.5;"/>
        </g>
        <g transform="matrix(0.83294,0,0,0.936445,46.5767,-53.678)">
            <path d="M41,290.081L41,353.75C41,362.167 47.833,369 56.25,369L333.75,369C342.167,369 349,362.167 349,353.75L349,290.081C349,245.331 312.669,209 267.919,209L122.081,209C77.331,209 41,245.331 41,290.081Z" style="fill:white;stroke:rgb(166,166,166);stroke-width:17.87px;stroke-linejoin:bevel;stroke-miterlimit:1.5;"/>
        </g>
        <g transform="matrix(0.926511,2.93106,-2.70229,0.854196,817.172,-470.399)">
            <circle cx="158.5" cy="248.5" r="5.5" style="fill:rgb(222,222,222);stroke:rgb(222,222,222);stroke-width:2.11px;stroke-linejoin:bevel;stroke-miterlimit:1.5;"/>
            <path d="M169,264.25C169,261.352 166.648,259 163.75,259L153.25,259C150.352,259 148,261.352 148,264.25L148,278.75C148,281.648 150.352,284 153.25,284L163.75,284C166.648,284 169,281.648 169,278.75L169,264.25Z" style="fill:rgb(222,222,222);stroke:rgb(222,222,222);stroke-width:2.11px;stroke-linejoin:bevel;stroke-miterlimit:1.5;"/>
            <g transform="matrix(1,0,0,1.25806,0,-81.2903)">
                <path d="M163.75,286.136C163.75,284.957 162.546,284 161.063,284L155.688,284C154.204,284 153,284.957 153,286.136L153,312.864C153,314.043 154.204,315 155.688,315L161.063,315C162.546,315 163.75,314.043 163.75,312.864L163.75,286.136Z" style="fill:rgb(222,222,222);stroke:rgb(222,222,222);stroke-width:1.88px;stroke-linejoin:bevel;stroke-miterlimit:1.5;"/>
            </g>
        </g>
        <g transform="matrix(1.58514,0,0,1.58514,-400.521,-100.232)">
            <circle cx="324.746" cy="281.526" r="14.526" style="fill:white;stroke:rgb(166,166,166);stroke-width:5.26px;"/>
        </g>
        <g transform="matrix(0.636924,0,0,0.636924,-92.5923,166.716)">
            <circle cx="324.746" cy="281.526" r="14.526" style="fill:white;stroke:rgb(166,166,166);stroke-width:13.08px;"/>
        </g>
        <g transform="matrix(1,0,0,1,11.0929,57)">
            <g transform="matrix(1,0,0,1,33,-34)">
                <circle cx="270.198" cy="327.5" r="17.5" style="fill:none;stroke:rgb(166,166,166);stroke-width:6.25px;stroke-linejoin:bevel;stroke-miterlimit:1.5;"/>
            </g>
            <g transform="matrix(0.485714,0,0,0.485714,171.959,134.429)">
                <circle cx="270.198" cy="327.5" r="17.5" style="fill:none;stroke:rgb(166,166,166);stroke-width:12.87px;stroke-linejoin:bevel;stroke-miterlimit:1.5;"/>
            </g>
            <g transform="matrix(1,0,0,1,30,-28)">
                <path d="M273.198,321.5L285.57,309.128" style="fill:none;stroke:rgb(166,166,166);stroke-width:6.25px;stroke-linejoin:bevel;stroke-miterlimit:1.5;"/>
            </g>
            <g transform="matrix(1,0,0,1,78.6921,-46)">
                <circle cx="150.028" cy="322.657" r="7.343" style="fill:none;stroke:rgb(166,166,166);stroke-width:6.25px;stroke-linejoin:bevel;stroke-miterlimit:1.5;"/>
            </g>
        </g>
    </g>
</svg>
