<?xml version="1.0" encoding="UTF-8" standalone="no"?>
<!DOCTYPE svg PUBLIC "-//W3C//DTD SVG 1.1//EN" "http://www.w3.org/Graphics/SVG/1.1/DTD/svg11.dtd">
<svg width="100%" height="100%" viewBox="0 0 417 417" version="1.1" xmlns="http://www.w3.org/2000/svg" xmlns:xlink="http://www.w3.org/1999/xlink" xml:space="preserve" xmlns:serif="http://www.serif.com/" style="fill-rule:evenodd;clip-rule:evenodd;stroke-linecap:round;stroke-linejoin:round;stroke-miterlimit:1.5;">
    <g transform="matrix(0.83109,0,0,0.767659,39.6222,49.4279)">
        <g>
            <g transform="matrix(1.16286,0,0,1.25166,-6.77913,-65.6072)">
                <ellipse cx="126" cy="250.5" rx="24" ry="27.5" style="fill:rgb(198,198,198);"/>
            </g>
            <g transform="matrix(1.16286,0,0,1.25166,107.646,-193.986)">
                <ellipse cx="126" cy="250.5" rx="24" ry="27.5" style="fill:rgb(198,198,198);"/>
            </g>
            <g transform="matrix(1.74428,0,0,1.99588,48.3402,-223.197)">
                <ellipse cx="126" cy="250.5" rx="24" ry="27.5" style="fill:rgb(198,198,198);"/>
            </g>
            <g transform="matrix(0.930284,0,0,0.930284,16.9431,23.734)">
                <path d="M199.156,361.997C196.524,361.981 193.911,361.886 191.322,361.715C190.866,361.685 190.411,361.653 189.955,361.619L189.127,361.553C188.303,361.485 187.48,361.409 186.651,361.325L185.829,361.239C185.279,361.179 184.731,361.117 184.189,361.051L183.372,360.95C182.241,360.806 181.114,360.647 179.991,360.474C177.9,360.152 175.825,359.78 173.764,359.36C172.145,359.029 170.536,358.668 168.937,358.278L168.152,358.083C167.823,358.001 167.494,357.917 167.165,357.831L166.587,357.68C166.327,357.611 166.067,357.541 165.808,357.472L165.03,357.259C164.771,357.186 164.513,357.113 164.254,357.041L163.513,356.828C162.73,356.6 161.95,356.365 161.171,356.123C160.656,355.962 160.141,355.799 159.635,355.634C158.588,355.294 157.546,354.94 156.51,354.574L155.854,354.34L155.407,354.178C154.805,353.959 154.205,353.736 153.607,353.509L152.862,353.223C149.639,351.974 146.477,350.6 143.386,349.11L142.673,348.764C142.434,348.647 142.196,348.529 141.963,348.413L141.255,348.058C140.142,347.497 139.039,346.919 137.949,346.329C135.103,344.789 132.321,343.146 129.611,341.408L128.949,340.981C128.508,340.694 128.069,340.405 127.635,340.115C126.525,339.375 125.428,338.618 124.337,337.841L123.759,337.428C123.547,337.274 123.335,337.12 123.123,336.967L122.49,336.502C122.28,336.346 122.07,336.19 121.86,336.033L121.343,335.644C120.513,335.017 119.691,334.38 118.874,333.731L118.753,333.636L118.69,333.586C118.303,333.277 117.917,332.966 117.531,332.651C116.787,332.045 116.051,331.431 115.324,330.811L115.123,330.64L114.529,330.128L113.988,329.656C113.643,329.354 113.3,329.051 112.957,328.743C112.309,328.164 111.668,327.578 111.03,326.985L110.807,326.776C109.71,325.751 108.632,324.707 107.57,323.644L107.093,323.164C106.91,322.978 106.727,322.791 106.544,322.605L105.998,322.043L105.841,321.879C105.292,321.309 104.749,320.733 104.21,320.151L103.848,319.761L103.705,319.604C102.692,318.5 101.698,317.378 100.726,316.242L100.462,315.932C98.077,313.129 95.808,310.223 93.663,307.222C92.689,305.86 91.74,304.478 90.816,303.075L90.385,302.416C89.776,301.479 89.179,300.534 88.594,299.58C87.023,297.022 85.538,294.405 84.14,291.731L84.029,291.519L83.811,291.097C74.578,273.187 69.366,252.88 69.366,231.366C69.366,231.366 69.367,230.942 69.367,230.942L69.367,230.92C69.611,158.732 128.052,32 200,32L200.422,32.001C272.182,32.508 330.39,158.878 330.633,230.92C330.634,231.062 330.634,231.214 330.634,231.366C330.634,232.108 330.628,232.849 330.615,233.588C330.504,240.248 329.893,246.787 328.82,253.165C328.626,254.314 328.418,255.457 328.194,256.6C327.16,261.877 325.807,267.041 324.159,272.064L324.021,272.485L323.8,273.143C322.796,276.117 321.687,279.044 320.478,281.916C318.802,285.904 316.932,289.791 314.883,293.565C314.624,294.042 314.363,294.517 314.095,294.995L313.708,295.683C312.846,297.203 311.954,298.704 311.035,300.181L310.884,300.424L310.465,301.091C310.324,301.312 310.183,301.533 310.042,301.755L309.638,302.381C309.058,303.274 308.467,304.16 307.869,305.033L307.423,305.681C302.047,313.434 295.853,320.579 288.97,326.985L288.395,327.518L287.94,327.934C284.137,331.4 280.129,334.644 275.937,337.645C275.027,338.297 274.109,338.937 273.183,339.565C272.477,340.043 271.766,340.515 271.051,340.981L270.389,341.408C267.959,342.966 265.475,344.447 262.94,345.844L262.247,346.223C261.09,346.852 259.923,347.464 258.745,348.058L258.037,348.413C257.02,348.919 255.995,349.412 254.96,349.892C251.373,351.56 247.699,353.069 243.946,354.412C243.009,354.747 242.067,355.071 241.12,355.386L240.358,355.636C240.104,355.718 239.849,355.8 239.595,355.882L238.932,356.09C237.989,356.385 237.041,356.669 236.087,356.943C235.641,357.071 235.194,357.197 234.745,357.32L234.192,357.472C233.933,357.541 233.673,357.611 233.413,357.68L232.631,357.884C232.37,357.951 232.109,358.017 231.848,358.083L231.155,358.255C230.863,358.327 230.57,358.397 230.276,358.467C229.225,358.717 228.169,358.954 227.11,359.178L226.314,359.344C224.229,359.771 222.127,360.148 220.009,360.474C218.887,360.647 217.76,360.805 216.628,360.95L215.811,361.051C213.423,361.34 211.016,361.564 208.591,361.721C205.746,361.906 202.884,362 200,362L199.156,361.997Z" style="fill:none;stroke:rgb(165,165,165);stroke-width:21.13px;"/>
            </g>
        </g>
    </g>
</svg>
