<?xml version="1.0" encoding="UTF-8" standalone="no"?>
<!DOCTYPE svg PUBLIC "-//W3C//DTD SVG 1.1//EN" "http://www.w3.org/Graphics/SVG/1.1/DTD/svg11.dtd">
<svg width="100%" height="100%" viewBox="0 0 417 417" version="1.1" xmlns="http://www.w3.org/2000/svg" xmlns:xlink="http://www.w3.org/1999/xlink" xml:space="preserve" xmlns:serif="http://www.serif.com/" style="fill-rule:evenodd;clip-rule:evenodd;stroke-linecap:round;stroke-linejoin:round;stroke-miterlimit:1.5;">
    <g transform="matrix(1.21379,0,0,1.21379,-40.331,-25.0483)">
        <path d="M198,47C265.886,47 321,102.114 321,170C321,237.886 220.886,337 198,337C173.114,337 75,237.886 75,170C75,102.114 130.114,47 198,47Z" style="fill:none;stroke:rgb(165,165,165);stroke-width:44.21px;"/>
    </g>
    <g transform="matrix(1,0,0,1.2279,-4.0377,-55.0431)">
        <g transform="matrix(1.01839,0.621585,-1.20553,1.97512,314.672,-226.938)">
            <path d="M156.5,168C176.093,168 192,171.809 192,176.5C192,181.191 184.615,190.088 165.022,190.088C145.429,190.088 121,181.191 121,176.5C121,171.809 136.907,168 156.5,168Z" style="fill:rgb(165,165,165);"/>
        </g>
        <g transform="matrix(-1.01839,0.621585,1.20553,1.97512,93.5865,-226.938)">
            <path d="M156.5,168C176.093,168 192,171.809 192,176.5C192,181.191 184.615,190.088 165.022,190.088C145.429,190.088 121,181.191 121,176.5C121,171.809 136.907,168 156.5,168Z" style="fill:rgb(165,165,165);"/>
        </g>
    </g>
    <g transform="matrix(1.95522,0,0,1.62167,-217.768,-132.653)">
        <path d="M151.5,246C151.5,246 133,294.086 133,314.695C133,327.005 141.29,337 151.5,337C161.71,337 170,327.005 170,314.695C170,294.086 151.5,246 151.5,246Z" style="fill:rgb(116,215,222);"/>
    </g>
</svg>
