<?xml version="1.0" encoding="UTF-8" standalone="no"?>
<!DOCTYPE svg PUBLIC "-//W3C//DTD SVG 1.1//EN" "http://www.w3.org/Graphics/SVG/1.1/DTD/svg11.dtd">
<svg width="100%" height="100%" viewBox="0 0 417 417" version="1.1" xmlns="http://www.w3.org/2000/svg" xmlns:xlink="http://www.w3.org/1999/xlink" xml:space="preserve" xmlns:serif="http://www.serif.com/" style="fill-rule:evenodd;clip-rule:evenodd;stroke-linejoin:round;stroke-miterlimit:2;">
    <path d="M104.79,276.678C52.394,277.682 14.895,289.04 14.895,289.04C11.053,290.202 8.878,294.264 10.04,298.105C11.202,301.947 15.264,304.122 19.105,302.96C19.105,302.96 102.921,284.643 193.347,308.04C288.284,332.604 397.244,280.618 404.669,276.278C408.134,274.253 409.303,269.795 407.278,266.331C405.253,262.866 400.795,261.697 397.331,263.722C395.356,264.876 385.807,269.043 371.103,273.928C360.737,257.543 343.832,239.657 321.8,222C339.422,168.551 317.12,110.31 268.014,86.788C264.515,85.112 260.964,83.652 257.375,82.404L192.456,104.047L191.404,126.808L167.608,130.022L143.441,111.411C138.227,116.781 133.452,122.722 129.22,129.195C95.134,121.428 65.549,119.906 44.614,124.672C27.67,128.53 15.984,136.584 10.524,147.982C4.484,160.592 6.464,176.662 16.451,194.328C30.841,219.784 62.369,249.497 104.79,276.678ZM355.38,278.792C346.345,265.579 332.72,251.469 315.556,237.336C313.909,240.709 312.126,243.969 310.217,247.112L308.447,249.939L306.933,252.228L306.624,252.68C305.165,254.811 302.758,256.097 300.175,256.125C269.45,256.457 234.957,248.977 201.312,233.001L200.518,232.622C164.636,215.434 135.666,191.397 116.469,165.402C114.95,163.346 114.518,160.682 115.307,158.251L115.939,156.357L116.605,154.467L117.304,152.583L118.037,150.704L118.713,149.05C119.469,147.234 120.274,145.426 121.129,143.629C91.806,137.342 66.398,135.96 48.131,140.119C36.82,142.695 28.457,147.217 24.812,154.826C22.205,160.268 22.41,166.678 24.569,173.732C27.145,182.148 32.461,191.292 39.984,200.88C59.576,225.849 93.759,253.25 136.717,277.415C155.91,278.693 176.284,281.603 196.99,286.96C228.918,295.222 262.524,295.213 292.899,291.581C292.512,288.964 292.873,286.209 294.101,283.646C297.378,276.805 305.592,273.912 312.433,277.189C316.619,279.194 319.327,283.048 320.047,287.304C333.008,284.783 344.949,281.79 355.38,278.792ZM188.141,251.919C194.982,255.196 197.875,263.41 194.599,270.251C191.322,277.092 183.108,279.985 176.267,276.708C169.426,273.432 166.532,265.217 169.809,258.377C173.086,251.536 181.3,248.642 188.141,251.919ZM304.945,222.087C323.185,174.958 304.779,121.964 261.17,101.076C258.537,99.814 255.869,98.698 253.177,97.723L203.765,113.342L204.15,136.476L272.258,155.921L255.015,156.919L224.499,151.181L225.157,177.757L214.325,148.867L196.99,144.473L170.901,150.046L150.132,128.223C144.712,134.079 142.88,136.67 138.801,143.929L138.483,144.499L137.249,146.792L136.123,149.011L135.596,150.095C134.234,152.938 133.012,155.81 131.927,158.706L131.712,159.285C149.522,182.154 175.553,203.097 207.362,218.334L208.065,218.669C237.841,232.816 268.313,239.889 295.82,240.275C297.947,236.89 299.905,233.347 301.676,229.649L302.519,227.847L303.257,226.193L304.001,224.444L304.703,222.708L304.945,222.087ZM90.278,170.775C97.119,174.052 100.012,182.266 96.735,189.107C93.459,195.948 85.244,198.841 78.403,195.564C71.563,192.287 68.669,184.073 71.946,177.232C75.223,170.391 83.437,167.498 90.278,170.775Z" style="fill:rgb(198,198,198);"/>
</svg>
