<?xml version="1.0" encoding="UTF-8" standalone="no"?>
<!DOCTYPE svg PUBLIC "-//W3C//DTD SVG 1.1//EN" "http://www.w3.org/Graphics/SVG/1.1/DTD/svg11.dtd">
<svg width="100%" height="100%" viewBox="0 0 417 417" version="1.1" xmlns="http://www.w3.org/2000/svg" xmlns:xlink="http://www.w3.org/1999/xlink" xml:space="preserve" xmlns:serif="http://www.serif.com/" style="fill-rule:evenodd;clip-rule:evenodd;stroke-linejoin:round;stroke-miterlimit:2;">
    <g transform="matrix(2.12759,0,0,2.12759,-53.6295,33.2636)">
        <path d="M72.776,65.435C56.751,69.064 43.901,74.426 35.994,80.697C29.595,85.773 26.277,91.56 26.277,97.5C26.277,104.072 30.379,110.481 38.2,115.942C54.009,126.982 85.818,134.723 122.5,134.723C159.182,134.723 190.991,126.982 206.8,115.942C214.621,110.481 218.723,104.072 218.723,97.5C218.723,91.626 215.481,85.903 209.222,80.87C201.499,74.66 188.943,69.327 173.254,65.672C169.871,39.437 148.592,19.277 123,19.277C97.484,19.277 76.254,39.318 72.776,65.435ZM72.278,73.196C58.571,76.485 47.521,81.059 40.622,86.531C36.35,89.919 33.723,93.534 33.723,97.5C33.723,100.336 35.112,103.012 37.459,105.563C40.26,108.608 44.37,111.404 49.506,113.941C65.969,122.073 92.551,127.277 122.5,127.277C152.449,127.277 179.031,122.073 195.494,113.941C200.63,111.404 204.74,108.608 207.541,105.563C209.888,103.012 211.277,100.336 211.277,97.5C211.277,93.591 208.72,90.022 204.556,86.673C197.841,81.273 187.087,76.741 173.721,73.44C173.708,75.204 173.614,76.948 173.443,78.668L173.267,80.226L173.09,81.504L173.051,81.758C172.865,82.958 172.105,83.991 171.016,84.528C158.06,90.907 141.92,94.74 124.414,94.799L124,94.8C105.3,94.8 88.139,90.493 74.724,83.372C73.662,82.809 72.938,81.768 72.779,80.577L72.662,79.645L72.561,78.709L72.475,77.769L72.404,76.823L72.354,75.985C72.306,75.061 72.28,74.132 72.278,73.196ZM122.672,105.493C126.237,105.493 129.132,108.388 129.132,111.953C129.132,115.518 126.237,118.412 122.672,118.412C119.107,118.412 116.212,115.518 116.212,111.953C116.212,108.388 119.107,105.493 122.672,105.493ZM64.712,90.968C68.277,90.968 71.172,93.862 71.172,97.427C71.172,100.992 68.277,103.887 64.712,103.887C61.147,103.887 58.252,100.992 58.252,97.427C58.252,93.862 61.147,90.968 64.712,90.968ZM180.489,90.968C184.055,90.968 186.949,93.862 186.949,97.427C186.949,100.992 184.055,103.887 180.489,103.887C176.924,103.887 174.03,100.992 174.03,97.427C174.03,93.862 176.924,90.968 180.489,90.968ZM166.127,69.131C164.29,45.449 145.727,26.723 123,26.723C100.082,26.723 81.398,45.766 79.83,69.735L79.81,70.041L79.753,71.264L79.726,72.433L79.723,73C79.723,74.482 79.788,75.947 79.916,77.395L79.943,77.684C92.136,83.762 107.423,87.354 124,87.354L124.366,87.353C139.861,87.304 154.214,84.115 165.952,78.693C166.167,76.827 166.277,74.927 166.277,73L166.268,72.065L166.245,71.214L166.205,70.322L166.151,69.443L166.127,69.131Z" style="fill:rgb(198,198,198);"/>
    </g>
</svg>
